<svg width="28" height="36" viewBox="0 0 28 36" fill="none" xmlns="http://www.w3.org/2000/svg">
<path fill-rule="evenodd" clip-rule="evenodd" d="M25.4545 2.57143H20.3636C20.3636 1.15714 19.2182 0 17.8182 0H10.1818C8.78182 0 7.63636 1.15714 7.63636 2.57143H2.54545C1.14545 2.57143 0 3.72857 0 5.14286V7.71429C0 9.12857 1.14545 10.2857 2.54545 10.2857V33.4286C2.54545 34.8429 3.69091 36 5.09091 36H22.9091C24.3091 36 25.4545 34.8429 25.4545 33.4286V10.2857C26.8545 10.2857 28 9.12857 28 7.71429V5.14286C28 3.72857 26.8545 2.57143 25.4545 2.57143ZM22.9091 33.4286H5.09091V10.2857H7.63636V30.8571H10.1818V10.2857H12.7273V30.8571H15.2727V10.2857H17.8182V30.8571H20.3636V10.2857H22.9091V33.4286ZM25.4545 7.71429H2.54545V5.14286H25.4545V7.71429Z" fill="#E30000"/>
</svg>
