<svg width="53" height="56" viewBox="0 0 53 56" fill="none" xmlns="http://www.w3.org/2000/svg">
<path opacity="0.15" d="M32.0319 56C43.0596 56 51.9993 54.7126 51.9993 53.1246C51.9993 51.5365 43.0596 50.2491 32.0319 50.2491C21.0042 50.2491 12.0645 51.5365 12.0645 53.1246C12.0645 54.7126 21.0042 56 32.0319 56Z" fill="#45413C"/>
<path d="M47.2928 5.27423C44.6449 2.88206 41.1496 1.41367 37.4231 1.12801C33.6967 0.842354 29.9787 1.75779 26.9246 3.71286C23.8706 5.66794 21.6767 8.53707 20.73 11.8143C19.7833 15.0915 20.1445 18.5663 21.7499 21.6258L1.62447 39.7793C1.40105 39.9804 1.23002 40.2242 1.12384 40.4928C1.01767 40.7614 0.979038 41.0481 1.01076 41.332L1.47633 44.9934C1.52613 45.4273 1.7378 45.8328 2.07639 46.143C2.41497 46.4531 2.86023 46.6495 3.33862 46.6995L7.38063 47.102C7.69742 47.1337 8.01802 47.1002 8.3185 47.0039C8.61898 46.9076 8.89158 46.7511 9.11594 46.5461L11.5073 44.38C11.7034 44.2008 11.8586 43.9884 11.9639 43.7548C12.0692 43.5213 12.1226 43.2712 12.121 43.0189V41.102H14.2372C14.5157 41.1034 14.7918 41.0551 15.0497 40.9597C15.3075 40.8643 15.542 40.7237 15.7398 40.5461L17.6232 38.84C17.8193 38.6609 17.9745 38.4484 18.0798 38.2149C18.1851 37.9813 18.2385 37.7312 18.2369 37.4789V36.3479C18.2449 35.8423 18.4731 35.36 18.8718 35.0061L21.3689 32.7441C21.5649 32.563 21.7987 32.4189 22.0566 32.3201C22.3145 32.2214 22.5915 32.17 22.8715 32.169H24.0989C24.3774 32.1705 24.6535 32.1221 24.9113 32.0267C25.1692 31.9313 25.4037 31.7908 25.6014 31.6131L29.2413 28.3159C32.6022 29.7136 36.3963 30.0043 39.9686 29.1379C43.5408 28.2715 46.667 26.3023 48.8072 23.5705C50.9474 20.8386 51.9673 17.5156 51.6908 14.1751C51.4144 10.8346 49.8588 7.68647 47.2928 5.27423ZM39.8225 12.0602C39.5107 11.797 39.2605 11.4795 39.087 11.1268C38.9135 10.7741 38.8202 10.3933 38.8127 10.0073C38.8052 9.62118 38.8836 9.23767 39.0432 8.87963C39.2029 8.52159 39.4405 8.19635 39.7419 7.92331C40.0434 7.65026 40.4024 7.43501 40.7977 7.29039C41.193 7.14577 41.6163 7.07475 42.0426 7.08156C42.4688 7.08838 42.8891 7.17288 43.2785 7.33004C43.6679 7.4872 44.0183 7.71379 44.3089 7.9963C44.8697 8.54138 45.1749 9.26233 45.1604 10.0073C45.1459 10.7522 44.8128 11.4629 44.2312 11.9898C43.6496 12.5166 42.8649 12.8184 42.0426 12.8315C41.2202 12.8447 40.4243 12.5681 39.8225 12.0602Z" fill="#0072BC"/>
<path d="M24.8404 11.3124C26.8342 9.51511 29.3176 8.22783 32.0384 7.58138C34.7592 6.93494 37.6204 6.95237 40.3313 7.63191C40.934 7.26174 41.6596 7.09195 42.3848 7.15135C43.11 7.21075 43.7902 7.4957 44.3098 7.95779C44.8193 8.43476 45.1266 9.05931 45.1775 9.72138C45.9302 10.1979 46.638 10.7301 47.2937 11.3124C49.4354 13.2692 50.9055 15.746 51.5262 18.4435C52.0357 16.3461 52.0193 14.1719 51.4782 12.0811C50.9371 9.99022 49.8851 8.03593 48.3998 6.36216C46.9144 4.68838 45.0334 3.33775 42.8954 2.40975C40.7573 1.48174 38.4167 1 36.0459 1C33.6751 1 31.3345 1.48174 29.1965 2.40975C27.0585 3.33775 25.1775 4.68838 23.6921 6.36216C22.2067 8.03593 21.1547 9.99022 20.6136 12.0811C20.0726 14.1719 20.0562 16.3461 20.5657 18.4435C21.2085 15.7451 22.6921 13.2703 24.8404 11.3124Z" fill="#188DFE"/>
<path d="M1.75144 45.7985L21.7499 27.6642C20.9762 26.1593 20.4964 24.5443 20.332 22.891L1.62447 39.7793C1.40105 39.9804 1.23002 40.2242 1.12384 40.4928C1.01767 40.7614 0.979038 41.0482 1.01076 41.332L1.47633 44.9934C1.49314 45.2782 1.58767 45.5549 1.75144 45.7985Z" fill="#188DFE"/>
<path d="M47.2928 5.27423C44.6449 2.88206 41.1496 1.41367 37.4231 1.12801C33.6967 0.842354 29.9787 1.75779 26.9246 3.71286C23.8706 5.66794 21.6767 8.53707 20.73 11.8143C19.7833 15.0915 20.1445 18.5663 21.7499 21.6258L1.62447 39.7793C1.40105 39.9804 1.23002 40.2242 1.12384 40.4928C1.01767 40.7614 0.979038 41.0481 1.01076 41.332L1.47633 44.9934C1.52613 45.4273 1.7378 45.8328 2.07639 46.143C2.41497 46.4531 2.86023 46.6495 3.33862 46.6995L7.38063 47.102C7.69742 47.1337 8.01802 47.1002 8.3185 47.0039C8.61898 46.9076 8.89158 46.7511 9.11594 46.5461L11.5073 44.38C11.7034 44.2008 11.8586 43.9884 11.9639 43.7548C12.0692 43.5213 12.1226 43.2712 12.121 43.0189V41.102H14.2372C14.5157 41.1034 14.7918 41.0551 15.0497 40.9597C15.3075 40.8643 15.542 40.7237 15.7398 40.5461L17.6232 38.84C17.8193 38.6609 17.9745 38.4484 18.0798 38.2149C18.1851 37.9813 18.2385 37.7312 18.2369 37.4789V36.3479C18.2449 35.8423 18.4731 35.36 18.8718 35.0061L21.3689 32.7441C21.5649 32.563 21.7987 32.4189 22.0566 32.3201C22.3145 32.2214 22.5915 32.17 22.8715 32.169H24.0989C24.3774 32.1705 24.6535 32.1221 24.9113 32.0267C25.1692 31.9313 25.4037 31.7908 25.6014 31.6131L29.2413 28.3159C32.6022 29.7136 36.3963 30.0043 39.9686 29.1379C43.5408 28.2715 46.667 26.3023 48.8072 23.5705C50.9474 20.8386 51.9673 17.5156 51.6908 14.1751C51.4144 10.8346 49.8588 7.68647 47.2928 5.27423ZM39.8225 12.0602C39.5107 11.797 39.2605 11.4795 39.087 11.1268C38.9135 10.7741 38.8202 10.3933 38.8127 10.0073C38.8052 9.62118 38.8836 9.23767 39.0432 8.87963C39.2029 8.52159 39.4405 8.19635 39.7419 7.92331C40.0434 7.65026 40.4024 7.43501 40.7977 7.29039C41.193 7.14577 41.6163 7.07475 42.0426 7.08156C42.4688 7.08838 42.8891 7.17288 43.2785 7.33004C43.6679 7.4872 44.0183 7.71379 44.3089 7.9963C44.8697 8.54138 45.1749 9.26233 45.1604 10.0073C45.1459 10.7522 44.8128 11.4629 44.2312 11.9898C43.6496 12.5166 42.8649 12.8184 42.0426 12.8315C41.2202 12.8447 40.4243 12.5681 39.8225 12.0602Z" stroke="#45413C" stroke-linecap="round" stroke-linejoin="round"/>
<path d="M1.64648 45.2233L21.1159 27.6066" stroke="#45413C" stroke-linecap="round" stroke-linejoin="round"/>
</svg>
