<svg width="40" height="40" viewBox="0 0 40 40" fill="none" xmlns="http://www.w3.org/2000/svg">
<path d="M30 32H27.5V29.7143C27.5 28.805 27.1049 27.9329 26.4017 27.2899C25.6984 26.6469 24.7446 26.2857 23.75 26.2857H16.25C15.2554 26.2857 14.3016 26.6469 13.5983 27.2899C12.8951 27.9329 12.5 28.805 12.5 29.7143V32H10V29.7143C10 28.1988 10.6585 26.7453 11.8306 25.6737C13.0027 24.602 14.5924 24 16.25 24H23.75C25.4076 24 26.9973 24.602 28.1694 25.6737C29.3415 26.7453 30 28.1988 30 29.7143V32ZM20 21.7143C19.0151 21.7143 18.0398 21.5369 17.1299 21.1923C16.2199 20.8477 15.3931 20.3426 14.6967 19.7059C14.0003 19.0691 13.4478 18.3132 13.0709 17.4813C12.694 16.6493 12.5 15.7576 12.5 14.8571C12.5 13.9567 12.694 13.065 13.0709 12.233C13.4478 11.4011 14.0003 10.6452 14.6967 10.0084C15.3931 9.37167 16.2199 8.86657 17.1299 8.52197C18.0398 8.17737 19.0151 8 20 8C21.9891 8 23.8968 8.72245 25.3033 10.0084C26.7098 11.2944 27.5 13.0385 27.5 14.8571C27.5 16.6758 26.7098 18.4199 25.3033 19.7059C23.8968 20.9918 21.9891 21.7143 20 21.7143ZM20 19.4286C21.3261 19.4286 22.5979 18.9469 23.5355 18.0896C24.4732 17.2323 25 16.0696 25 14.8571C25 13.6447 24.4732 12.482 23.5355 11.6247C22.5979 10.7673 21.3261 10.2857 20 10.2857C18.6739 10.2857 17.4021 10.7673 16.4645 11.6247C15.5268 12.482 15 13.6447 15 14.8571C15 16.0696 15.5268 17.2323 16.4645 18.0896C17.4021 18.9469 18.6739 19.4286 20 19.4286Z" fill="#188DFE"/>
<path fill-rule="evenodd" clip-rule="evenodd" d="M29.133 0C35.3284 0 40 5.57334 40 12.9641V27.0523C40 30.8349 38.787 34.2524 36.5823 36.677C34.6047 38.8493 32.0391 40.0001 29.1628 40.0001H10.8316C7.96093 40.0001 5.39721 38.8513 3.41767 36.677C1.21302 34.2524 0 30.8349 0 27.0523V12.9641C0 5.57334 4.67163 0 10.867 0H29.133ZM29.133 3.07693H10.867C6.18791 3.07693 2.7907 7.23488 2.7907 12.9641V27.0523C2.7907 30.0124 3.71349 32.6565 5.38791 34.4965C6.83163 36.0862 8.71628 36.9231 10.8372 36.9231H29.133C29.1367 36.919 29.1516 36.9231 29.1628 36.9231C31.2856 36.9231 33.1684 36.0862 34.6121 34.4965C36.2884 32.6565 37.2093 30.0124 37.2093 27.0523V12.9641C37.2093 7.23488 33.8121 3.07693 29.133 3.07693Z" fill="#188DFE"/>
</svg>
