<svg width="40" height="40" viewBox="0 0 40 40" fill="none" xmlns="http://www.w3.org/2000/svg">
<path fill-rule="evenodd" clip-rule="evenodd" d="M28.668 0C35.446 0 40 4.756 40 11.832V28.168C40 35.244 35.446 40 28.664 40H11.328C4.552 40 0 35.244 0 28.168V11.832C0 4.756 4.552 0 11.328 0H28.668ZM28.668 3H11.328C6.27 3 3 6.466 3 11.832V28.168C3 33.534 6.27 37 11.328 37H28.664C33.728 37 37 33.534 37 28.168V11.832C37 6.466 33.728 3 28.668 3ZM13.6736 14.7968C16.0242 14.7984 18.0109 16.36 18.6565 18.4978L30.0194 18.499C30.8474 18.499 31.5194 19.171 31.5194 19.999V23.705C31.5194 24.533 30.8474 25.205 30.0194 25.205C29.1914 25.205 28.5194 24.533 28.5194 23.705V21.499L25.862 21.498L25.863 23.705C25.863 24.533 25.191 25.205 24.363 25.205C23.535 25.205 22.863 24.533 22.863 23.705L22.862 21.498L18.6574 21.4999C18.0122 23.6402 16.0224 25.2048 13.6736 25.2048C10.8036 25.2048 8.4696 22.8688 8.4696 20.0008C8.4696 17.1308 10.8036 14.7968 13.6736 14.7968ZM13.6776 17.7968C12.4576 17.7968 11.4696 18.7848 11.4696 20.0008C11.4696 21.2168 12.4576 22.2048 13.6736 22.2048C14.8876 22.2048 15.8776 21.2168 15.8776 20.0008C15.8776 18.7868 14.8896 17.7988 13.6776 17.7968Z" fill="#188DFE"/>
</svg>
