<svg width="49" height="58" viewBox="0 0 49 58" fill="none" xmlns="http://www.w3.org/2000/svg">
<path opacity="0.15" d="M29.5983 57.195C39.7609 57.195 47.9993 55.8853 47.9993 54.2697C47.9993 52.6541 39.7609 51.3444 29.5983 51.3444C19.4357 51.3444 11.1973 52.6541 11.1973 54.2697C11.1973 55.8853 19.4357 57.195 29.5983 57.195Z" fill="#45413C"/>
<path d="M43.6612 5.5889C41.221 3.15522 37.9998 1.66133 34.5658 1.37072C31.1317 1.08011 27.7053 2.01143 24.8908 4.00044C22.0764 5.98944 20.0546 8.90837 19.1822 12.2425C18.3097 15.5765 18.6426 19.1116 20.122 22.2243L1.57548 40.6928C1.36959 40.8974 1.21197 41.1454 1.11413 41.4187C1.01628 41.692 0.980682 41.9837 1.00992 42.2725L1.43896 45.9974C1.48485 46.4388 1.67992 46.8514 1.99194 47.167C2.30397 47.4825 2.71429 47.6822 3.15515 47.7331L6.88007 48.1427C7.17201 48.1749 7.46746 48.1408 7.74437 48.0428C8.02127 47.9449 8.27249 47.7857 8.47925 47.5771L10.683 45.3733C10.8637 45.1911 11.0067 44.975 11.1038 44.7374C11.2008 44.4998 11.25 44.2453 11.2486 43.9887V42.0385H13.1988C13.4554 42.04 13.7099 41.9908 13.9475 41.8937C14.1851 41.7967 14.4012 41.6537 14.5834 41.4729L16.3191 39.7372C16.4999 39.555 16.6429 39.3389 16.7399 39.1013C16.837 38.8637 16.8862 38.6092 16.8847 38.3526V37.2019C16.892 36.6875 17.1023 36.1968 17.4698 35.8368L19.771 33.5355C19.9516 33.3513 20.167 33.2047 20.4047 33.1042C20.6424 33.0038 20.8976 32.9515 21.1557 32.9505H22.2868C22.5435 32.9519 22.7979 32.9028 23.0355 32.8057C23.2731 32.7086 23.4892 32.5656 23.6714 32.3849L27.0258 29.0305C30.123 30.4524 33.6195 30.7482 36.9115 29.8668C40.2035 28.9853 43.0844 26.982 45.0567 24.2027C47.029 21.4234 47.969 18.0427 47.7142 14.6443C47.4594 11.2458 46.0259 8.04301 43.6612 5.5889ZM36.7769 12.4927C36.4895 12.2249 36.259 11.9019 36.0991 11.5431C35.9392 11.1842 35.8532 10.7969 35.8463 10.4041C35.8394 10.0113 35.9116 9.62114 36.0588 9.25688C36.2059 8.89263 36.4249 8.56174 36.7027 8.28396C36.9804 8.00617 37.3113 7.78718 37.6756 7.64005C38.0398 7.49293 38.43 7.42067 38.8228 7.4276C39.2156 7.43453 39.6029 7.5205 39.9618 7.68039C40.3206 7.84028 40.6436 8.0708 40.9114 8.35821C41.4281 8.91276 41.7094 9.64622 41.696 10.4041C41.6827 11.1619 41.3757 11.885 40.8397 12.421C40.3037 12.957 39.5806 13.264 38.8228 13.2773C38.0649 13.2907 37.3315 13.0094 36.7769 12.4927Z" fill="#0072BC"/>
<path d="M22.9692 11.7319C24.8065 9.90337 27.0951 8.59375 29.6024 7.93609C32.1098 7.27842 34.7465 7.29616 37.2448 7.98749C37.8002 7.6109 38.4689 7.43816 39.1372 7.49859C39.8055 7.55903 40.4323 7.84891 40.9112 8.31903C41.3807 8.80427 41.6639 9.43966 41.7108 10.1132C42.4044 10.598 43.0567 11.1394 43.661 11.7319C45.6347 13.7226 46.9894 16.2424 47.5614 18.9867C48.031 16.853 48.0159 14.641 47.5172 12.5139C47.0186 10.3867 46.0492 8.39853 44.6803 6.6957C43.3114 4.99288 41.578 3.6188 39.6077 2.67469C37.6374 1.73058 35.4804 1.24048 33.2956 1.24048C31.1108 1.24048 28.9538 1.73058 26.9835 2.67469C25.0132 3.6188 23.2798 4.99288 21.9109 6.6957C20.5421 8.39853 19.5726 10.3867 19.074 12.5139C18.5754 14.641 18.5602 16.853 19.0298 18.9867C19.6222 16.2415 20.9894 13.7237 22.9692 11.7319Z" fill="#188DFE"/>
<path d="M1.69249 46.8165L20.122 28.3674C19.409 26.8364 18.9669 25.1934 18.8154 23.5114L1.57548 40.6928C1.36959 40.8974 1.21197 41.1454 1.11413 41.4187C1.01628 41.692 0.980682 41.9837 1.00992 42.2725L1.43896 45.9974C1.45446 46.2872 1.54156 46.5686 1.69249 46.8165Z" fill="#188DFE"/>
<path d="M43.6612 5.5889C41.221 3.15522 37.9998 1.66133 34.5658 1.37072C31.1317 1.08011 27.7053 2.01143 24.8908 4.00044C22.0764 5.98944 20.0546 8.90837 19.1822 12.2425C18.3097 15.5765 18.6426 19.1116 20.122 22.2243L1.57548 40.6928C1.36959 40.8974 1.21197 41.1454 1.11413 41.4187C1.01628 41.692 0.980682 41.9837 1.00992 42.2725L1.43896 45.9974C1.48485 46.4388 1.67992 46.8514 1.99194 47.167C2.30397 47.4825 2.71429 47.6822 3.15515 47.7331L6.88007 48.1427C7.17201 48.1749 7.46746 48.1408 7.74437 48.0428C8.02127 47.9449 8.27249 47.7857 8.47925 47.5771L10.683 45.3733C10.8637 45.1911 11.0067 44.975 11.1038 44.7374C11.2008 44.4998 11.25 44.2454 11.2486 43.9887V42.0385H13.1988C13.4554 42.04 13.7099 41.9908 13.9475 41.8937C14.1851 41.7967 14.4012 41.6537 14.5834 41.4729L16.3191 39.7372C16.4999 39.555 16.6429 39.3389 16.7399 39.1013C16.837 38.8637 16.8862 38.6092 16.8847 38.3526V37.2019C16.892 36.6875 17.1023 36.1968 17.4698 35.8368L19.771 33.5355C19.9516 33.3513 20.167 33.2047 20.4047 33.1042C20.6424 33.0038 20.8976 32.9515 21.1557 32.9505H22.2868C22.5435 32.9519 22.7979 32.9028 23.0355 32.8057C23.2731 32.7086 23.4892 32.5656 23.6714 32.3849L27.0258 29.0305C30.123 30.4524 33.6195 30.7482 36.9115 29.8668C40.2035 28.9853 43.0844 26.982 45.0567 24.2027C47.029 21.4234 47.969 18.0427 47.7142 14.6443C47.4594 11.2458 46.0259 8.04301 43.6612 5.5889ZM36.7769 12.4927C36.4895 12.2249 36.259 11.9019 36.0991 11.5431C35.9392 11.1842 35.8532 10.7969 35.8463 10.4041C35.8394 10.0113 35.9116 9.62114 36.0587 9.25688C36.2059 8.89263 36.4249 8.56174 36.7027 8.28396C36.9804 8.00617 37.3113 7.78718 37.6756 7.64005C38.0398 7.49293 38.43 7.42067 38.8228 7.4276C39.2156 7.43453 39.6029 7.5205 39.9618 7.68039C40.3206 7.84028 40.6436 8.0708 40.9114 8.35821C41.4281 8.91276 41.7094 9.64622 41.696 10.4041C41.6827 11.1619 41.3757 11.885 40.8397 12.421C40.3037 12.957 39.5806 13.264 38.8228 13.2773C38.0649 13.2907 37.3315 13.0094 36.7769 12.4927Z" stroke="#45413C" stroke-linecap="round" stroke-linejoin="round"/>
<path d="M1.59473 46.2312L19.5367 28.3087" stroke="#45413C" stroke-linecap="round" stroke-linejoin="round"/>
</svg>
